# xmcd
#
# Track frame offsets:
# 150
# 11835
# 23062
# 34225
# 45210
# 57770
# 70127
# 83625
# 96850
# 110485
# 122280
# 133240
# 145640
# 157430
# 169992
# 181162
# 194115
# 206100
# 218100
# 229555
# 242105
# 254517
# 267312
# 279847
#
# Disc length: 3892 seconds
#
# Revision: 1
# Processed by: cddbd v1.5.2PL0 Copyright (c) Steve Scherf et al.
# Submitted via: Easy CD Ripper 2.3.12
#
DISCID=5b0f3218
DTITLE=Hank Williams - 24 Greatest Hits - Vol 2
DYEAR=1997
DGENRE=Country
TTITLE0=My Bucket's Got a Hole In It - Hank Williams
TTITLE1=Crazy Heart - Hank Williams
TTITLE2=I'll Never Get Out of This World Alive - Hank Williams
TTITLE3=Moanin' the Blues - Hank Williams
TTITLE4=I Could Never Be Ashamed of You - Hank Williams
TTITLE5=Lost Higway - Hank Williams
TTITLE6=You're Gonna Chage (or I'm Gonna Leave) - Hank Williams
TTITLE7=A House Without Love - Hank Williams
TTITLE8=I'd Still Want You - Hank Williams
TTITLE9=Dear John - Hank Williams
TTITLE10=Let's Turn Back the Years - Hank Williams
TTITLE11=Howlin' At The Moon - Hank Williams
TTITLE12=A Mansion on the Hill - Hank Williams
TTITLE13=I Saw the Light - Hank Williams
TTITLE14=(I Heard That) Lonesome Whistle - Hank Williams
TTITLE15=I'm A Long Gone Daddy - Hank Williams
TTITLE16=Why Should We Try Anymore - Hank Williams
TTITLE17=Long Gone Lonesome Blues - Hank Williams
TTITLE18=Nobody's Lonesome for Me - Hank Williams
TTITLE19=They'll Never Take Her Love From Me - Hank Williams
TTITLE20=My Sweet Love Ain't Around - Hank Williams
TTITLE21=I Just Don't Like This Kind of Livin' - Hank Williams
TTITLE22=I Won't Be Home No More - Hank Williams
TTITLE23=I'm Sorry for You My Friend - Hank Williams
EXTD=
EXTT0=
EXTT1=
EXTT2=
EXTT3=
EXTT4=
EXTT5=
EXTT6=
EXTT7=
EXTT8=
EXTT9=
EXTT10=
EXTT11=
EXTT12=
EXTT13=
EXTT14=
EXTT15=
EXTT16=
EXTT17=
EXTT18=
EXTT19=
EXTT20=
EXTT21=
EXTT22=
EXTT23=
PLAYORDER=
